<svg width="164" height="47" viewBox="0 0 164 47" fill="none" xmlns="http://www.w3.org/2000/svg">
<path d="M17.5052 0.692627C16.8606 0.692627 16.2985 0.96117 15.8605 1.48986L4.25216 16.2262V2.84936C4.25216 2.24095 4.0662 1.72484 3.69427 1.32202C3.31407 0.910818 2.79337 0.692627 2.18176 0.692627C1.6032 0.692627 1.0949 0.889838 0.673378 1.28006C0.235329 1.68288 0.00390625 2.22836 0.00390625 2.84936V21.3327C0.00390625 21.9327 0.231196 22.4698 0.665113 22.881C1.0825 23.2796 1.60733 23.4894 2.18589 23.4894C2.48756 23.4894 2.78924 23.4223 3.07852 23.288C3.37193 23.1537 3.61575 22.9691 3.83064 22.7215L15.3852 7.99364V21.3327C15.3852 21.9243 15.596 22.453 16.001 22.8642C16.406 23.2754 16.9267 23.4894 17.5094 23.4894C18.0921 23.4894 18.6458 23.2712 19.0384 22.8558C19.4269 22.4488 19.6335 21.9201 19.6335 21.3327V2.84936C19.6335 2.24095 19.4227 1.70386 19.0301 1.30524C18.6375 0.906622 18.1086 0.692627 17.5094 0.692627" fill="white"/>
<path d="M42.9701 0.692627C42.3915 0.692627 41.8708 0.902426 41.4699 1.29685C41.0608 1.69966 40.8459 2.23675 40.8459 2.84936V9.94477H29.8244V2.84936C29.8244 2.24095 29.6137 1.70386 29.2211 1.30524C28.8244 0.906622 28.2995 0.692627 27.7003 0.692627C27.1011 0.692627 26.6052 0.902426 26.2002 1.29685C25.7911 1.69966 25.5762 2.23675 25.5762 2.84936V21.3327C25.5762 21.9243 25.7869 22.4572 26.1919 22.8642C26.5928 23.2754 27.1176 23.4894 27.7003 23.4894C28.283 23.4894 28.8367 23.2712 29.2335 22.8558C29.6219 22.4488 29.8286 21.9201 29.8286 21.3327V13.9352H40.8501V21.3327C40.8501 21.9243 41.0608 22.4572 41.4658 22.8642C41.8667 23.2754 42.3915 23.4894 42.9742 23.4894C43.5569 23.4894 44.1148 23.267 44.5032 22.8432C44.8834 22.432 45.0735 21.9201 45.0735 21.3285V2.84936C45.0735 2.24514 44.8752 1.71225 44.4908 1.31363C44.1024 0.906622 43.5775 0.692627 42.9742 0.692627" fill="white"/>
<path d="M66.1866 23.5061C66.9429 23.5061 67.414 23.1914 67.6785 22.9228C68.2529 22.3396 68.3355 21.7689 68.3066 21.3955C68.2653 20.9214 68.0669 20.4682 67.7157 20.0612L60.6201 11.6986L67.009 4.15839C67.3726 3.7346 67.5627 3.27304 67.5793 2.77792C67.5917 2.2702 67.4098 1.79186 67.0338 1.35548C66.6412 0.902311 66.0998 0.667336 65.4882 0.679924C64.8725 0.692512 64.3476 0.952663 63.9633 1.42261L56.9421 9.94885H55.2478V2.84925C55.2478 2.24083 55.0411 1.70374 54.6444 1.30513C54.2477 0.906507 53.7229 0.692512 53.1236 0.692512C52.5244 0.692512 52.0244 0.902311 51.6235 1.29673C51.2144 1.69955 50.9995 2.23663 50.9995 2.85344V21.3368C50.9995 21.9284 51.2144 22.4613 51.6153 22.8683C52.0161 23.2795 52.541 23.4935 53.1236 23.4935C53.7063 23.4935 54.2601 23.2753 54.6568 22.8599C55.0453 22.4487 55.2519 21.9242 55.2519 21.3368V13.9392H57.0743L64.5708 22.8053C64.9551 23.2501 65.4923 23.4935 66.1246 23.5103C66.1453 23.5103 66.1618 23.5103 66.1825 23.5103" fill="white"/>
<path d="M114.723 45.7238C115.112 45.3168 115.319 44.7881 115.319 44.2006V25.7173C115.319 25.1089 115.112 24.5718 114.715 24.169C114.323 23.7704 113.794 23.5564 113.194 23.5564C112.55 23.5564 111.988 23.8249 111.55 24.3536L99.9372 39.0899V25.7173C99.9372 25.1089 99.7513 24.5928 99.3793 24.19C98.9991 23.7788 98.4784 23.5606 97.8668 23.5606C97.2883 23.5606 96.78 23.7578 96.3584 24.148C95.9204 24.5508 95.689 25.0963 95.689 25.7173V44.2006C95.689 44.8049 95.9163 45.3378 96.3502 45.749C96.7676 46.1476 97.2924 46.3574 97.8709 46.3574C98.1726 46.3574 98.4743 46.2902 98.7636 46.156C99.057 46.0217 99.3008 45.8371 99.5157 45.5895L111.07 30.8616V44.2006C111.07 44.7923 111.285 45.3252 111.686 45.7322C112.091 46.1434 112.612 46.3574 113.194 46.3574C113.777 46.3574 114.331 46.1392 114.728 45.7196" fill="white"/>
<path d="M138.655 23.5605C138.077 23.5605 137.556 23.7703 137.155 24.1648C136.746 24.5676 136.531 25.1047 136.531 25.7173V32.8127H125.509V25.7173C125.509 25.1047 125.299 24.5718 124.906 24.1732C124.514 23.7745 123.985 23.5605 123.385 23.5605C122.786 23.5605 122.29 23.7703 121.885 24.1648C121.476 24.5676 121.261 25.1047 121.261 25.7173V44.2006C121.261 44.7922 121.476 45.3209 121.877 45.7321C122.278 46.1433 122.803 46.3573 123.385 46.3573C123.968 46.3573 124.522 46.1391 124.919 45.7237C125.307 45.3167 125.514 44.788 125.514 44.2006V36.8031H136.535V44.2006C136.535 44.7922 136.75 45.3209 137.151 45.7321C137.556 46.1433 138.077 46.3573 138.659 46.3573C139.242 46.3573 139.8 46.1349 140.184 45.7153C140.564 45.3041 140.754 44.7922 140.754 44.2006V25.7173C140.754 25.1005 140.56 24.5844 140.176 24.1816C139.787 23.7745 139.263 23.5605 138.659 23.5605" fill="white"/>
<path d="M163.996 44.2595C163.955 43.7812 163.756 43.3322 163.405 42.9252L156.313 34.5626L162.702 27.0224C163.066 26.5986 163.256 26.137 163.273 25.6419C163.285 25.1342 163.103 24.6559 162.727 24.2195C162.335 23.7663 161.793 23.5355 161.182 23.5439C160.57 23.5565 160.041 23.8167 159.661 24.2866L152.64 32.8129H150.941V25.7174C150.941 25.1048 150.73 24.5719 150.338 24.1733C149.945 23.7747 149.416 23.5607 148.817 23.5607C148.218 23.5607 147.722 23.7705 147.317 24.1649C146.908 24.5677 146.693 25.1048 146.693 25.7174V44.2008C146.693 44.7924 146.908 45.3211 147.309 45.7323C147.714 46.1435 148.234 46.3575 148.817 46.3575C149.4 46.3575 149.953 46.1393 150.35 45.7239C150.739 45.3169 150.945 44.7882 150.945 44.2008V36.8032H152.768L160.264 45.6693C160.648 46.1141 161.186 46.3575 161.818 46.3701C161.839 46.3701 161.855 46.3701 161.876 46.3701C162.632 46.3701 163.103 46.0554 163.368 45.7826C163.942 45.1994 164.025 44.6287 163.996 44.2553" fill="white"/>
<path d="M89.8204 46.777C89.3369 46.777 88.874 46.6386 88.4484 46.3658C87.9979 46.0805 87.6715 45.6777 87.4731 45.1742L82.2248 32.0407L76.8442 45.191C76.6128 45.7238 76.2698 46.1267 75.8235 46.3994C75.4061 46.6512 74.9598 46.7812 74.501 46.7812C73.6084 46.7812 72.8522 46.3574 72.3769 45.5812C71.9099 44.8217 71.8562 43.9406 72.2199 43.1056L79.7659 24.8111C79.8857 24.5299 80.0304 24.2824 80.204 24.0684C79.1667 23.9299 78.1873 23.6739 77.2781 23.3005C75.8276 22.7047 74.563 21.8571 73.5175 20.7703C72.472 19.692 71.6537 18.3954 71.0793 16.9184C70.509 15.4498 70.2197 13.826 70.2197 12.0846C70.2197 10.3433 70.509 8.71945 71.0793 7.26345C71.6537 5.79905 72.472 4.50669 73.5175 3.42412C74.563 2.34156 75.8276 1.48977 77.2781 0.893943C78.7162 0.30231 80.3155 0.00439453 82.0347 0.00439453C83.7538 0.00439453 85.349 0.30231 86.7788 0.893943C88.217 1.48977 89.4815 2.33736 90.5353 3.41573C91.5891 4.49829 92.4156 5.79066 92.99 7.25506C93.5603 8.71526 93.8496 10.3391 93.8496 12.0762C93.8496 13.8134 93.5603 15.4414 92.99 16.91C92.4156 18.387 91.5891 19.6878 90.5353 20.7661C89.4815 21.8445 88.217 22.6963 86.7788 23.2879C85.9358 23.6362 85.0266 23.8837 84.0637 24.0264C84.2538 24.2572 84.4068 24.5341 84.5183 24.8446L92.085 43.1727C92.4198 44.0371 92.3702 44.8721 91.9445 45.5938C91.4982 46.3532 90.7419 46.7686 89.8245 46.7686L89.8204 46.777ZM82.2289 29.8336L88.2376 44.8637C88.3699 45.2035 88.5889 45.4679 88.8864 45.6609C89.1798 45.8455 89.4939 45.942 89.8204 45.942C90.4568 45.942 90.932 45.6819 91.2337 45.1742C91.5271 44.679 91.5561 44.1126 91.3164 43.5L83.7497 25.1635C83.5596 24.6432 83.2496 24.2991 82.8281 24.1187L82.1215 23.8208L81.4396 24.1271C81.0387 24.3075 80.7329 24.6474 80.5263 25.1341L72.9803 43.437C72.7158 44.0371 72.753 44.6035 73.0794 45.1364C73.41 45.6693 73.8853 45.942 74.501 45.942C74.8069 45.942 75.1127 45.8539 75.4019 45.6819C75.7036 45.5015 75.9268 45.2329 76.0879 44.8679L82.2413 29.8378L82.2289 29.8336ZM82.0305 0.839396C80.4188 0.839396 78.9229 1.11633 77.5839 1.666C76.2408 2.21568 75.0713 3.00452 74.1043 4.00317C73.1373 5.00181 72.3769 6.20186 71.8438 7.56136C71.3107 8.92086 71.0421 10.4398 71.0421 12.0762C71.0421 13.7127 71.3107 15.2358 71.8438 16.6037C72.3769 17.9758 73.1373 19.1759 74.1043 20.1787C75.0713 21.1815 76.2408 21.9662 77.5839 22.5159C78.708 22.9774 79.956 23.2502 81.2908 23.3215L82.1173 23.3676L82.9562 23.3089C84.2208 23.2208 85.4027 22.9522 86.4648 22.5159C87.7996 21.9662 88.9691 21.1773 89.9444 20.1787C90.9196 19.18 91.6842 17.9758 92.2173 16.6037C92.7504 15.2358 93.019 13.7127 93.019 12.0762C93.019 10.4398 92.7504 8.92506 92.2173 7.56136C91.6842 6.19767 90.9196 5.00181 89.9444 3.99897C88.9691 3.00033 87.7996 2.21568 86.4648 1.66181C85.1341 1.11213 83.6422 0.8352 82.0305 0.8352V0.839396ZM82.0305 20.1409C80.9148 20.1409 79.8775 19.9353 78.9394 19.5241C78.0096 19.1171 77.1913 18.5465 76.5177 17.8247C75.84 17.103 75.3069 16.2429 74.9308 15.2652C74.5548 14.2917 74.3605 13.2176 74.3605 12.0804C74.3605 10.9433 74.5506 9.86916 74.9308 8.89569C75.311 7.91802 75.8441 7.05785 76.5177 6.33614C77.1955 5.61443 78.0096 5.04797 78.9394 4.64935C79.8734 4.25073 80.9148 4.04513 82.0305 4.04513C83.1463 4.04513 84.1877 4.24654 85.1217 4.64935C86.0556 5.05216 86.878 5.61862 87.5599 6.33614C88.2459 7.05785 88.779 7.91802 89.1468 8.89149C89.5146 9.86916 89.7047 10.9433 89.7047 12.0804C89.7047 13.2176 89.5187 14.2917 89.1468 15.2694C88.779 16.2429 88.2459 17.103 87.5599 17.8247C86.8739 18.5465 86.0556 19.1213 85.1217 19.5283C84.1877 19.9353 83.1505 20.1451 82.0347 20.1451L82.0305 20.1409ZM77.1169 17.2457C77.7162 17.8835 78.4435 18.3912 79.27 18.7563C80.1006 19.1213 81.0305 19.3059 82.0305 19.3059C83.0306 19.3059 83.9604 19.1213 84.7911 18.7604C85.6217 18.3954 86.3532 17.8877 86.9607 17.2457C87.5681 16.6037 88.0434 15.84 88.3699 14.9715C88.7046 14.0903 88.874 13.1168 88.874 12.0846C88.874 11.0524 88.7046 10.079 88.3699 9.1978C88.0434 8.32923 87.5681 7.56556 86.9607 6.92357C86.3573 6.28578 85.63 5.78227 84.7993 5.42561C83.9687 5.06895 83.0347 4.88852 82.0305 4.88852C81.0263 4.88852 80.0924 5.06895 79.2617 5.42561C78.4352 5.77807 77.7162 6.28159 77.1169 6.91938C76.5136 7.56136 76.0383 8.32923 75.6995 9.20619C75.3606 10.0832 75.187 11.0524 75.187 12.0846C75.187 13.1168 75.3606 14.0861 75.6995 14.9631C76.0383 15.84 76.5136 16.6079 77.1169 17.2499V17.2457Z" fill="white"/>
</svg>
