<svg width="82" height="34" viewBox="0 0 82 34" fill="none" xmlns="http://www.w3.org/2000/svg">
<path d="M9.24763 1.31592C8.93025 1.31592 8.65356 1.44934 8.4379 1.71201L2.72304 9.03346V2.38745C2.72304 2.08517 2.63149 1.82875 2.44839 1.62862C2.26121 1.42432 2.00487 1.31592 1.70376 1.31592C1.41894 1.31592 1.1687 1.4139 0.961178 1.60778C0.745523 1.80791 0.631592 2.07892 0.631592 2.38745V11.5705C0.631592 11.8687 0.743488 12.1355 0.957109 12.3398C1.16259 12.5378 1.42097 12.6421 1.7058 12.6421C1.85432 12.6421 2.00283 12.6087 2.14525 12.542C2.2897 12.4753 2.40973 12.3836 2.51552 12.2606L8.20394 4.94329V11.5705C8.20394 11.8645 8.3077 12.1272 8.50708 12.3315C8.70646 12.5358 8.9628 12.6421 9.24966 12.6421C9.53652 12.6421 9.80914 12.5337 10.0024 12.3273C10.1937 12.1251 10.2954 11.8624 10.2954 11.5705V2.38745C10.2954 2.08517 10.1916 1.81833 9.99835 1.62028C9.80508 1.42224 9.54466 1.31592 9.24966 1.31592" fill="white"/>
<path d="M21.7841 1.31592C21.4993 1.31592 21.2429 1.42015 21.0456 1.61611C20.8442 1.81625 20.7384 2.08309 20.7384 2.38745V5.91267H15.3124V2.38745C15.3124 2.08517 15.2087 1.81833 15.0154 1.62028C14.8201 1.42224 14.5617 1.31592 14.2667 1.31592C13.9717 1.31592 13.7276 1.42015 13.5282 1.61611C13.3268 1.81625 13.221 2.08309 13.221 2.38745V11.5705C13.221 11.8645 13.3247 12.1292 13.5241 12.3315C13.7215 12.5358 13.9798 12.6421 14.2667 12.6421C14.5536 12.6421 14.8262 12.5337 15.0215 12.3273C15.2127 12.1251 15.3145 11.8624 15.3145 11.5705V7.89522H20.7404V11.5705C20.7404 11.8645 20.8442 12.1292 21.0436 12.3315C21.2409 12.5358 21.4993 12.6421 21.7861 12.6421C22.073 12.6421 22.3477 12.5316 22.5389 12.321C22.7261 12.1167 22.8197 11.8624 22.8197 11.5685V2.38745C22.8197 2.08726 22.722 1.8225 22.5328 1.62445C22.3416 1.42224 22.0832 1.31592 21.7861 1.31592" fill="white"/>
<path d="M33.2138 12.6504C33.5862 12.6504 33.8181 12.494 33.9483 12.3606C34.2311 12.0708 34.2718 11.7873 34.2575 11.6018C34.2372 11.3662 34.1395 11.1411 33.9666 10.9388L30.4734 6.78404L33.6187 3.03784C33.7977 2.82728 33.8913 2.59797 33.8995 2.35197C33.9056 2.09973 33.8161 1.86207 33.6309 1.64526C33.4376 1.42011 33.1711 1.30337 32.87 1.30963C32.5669 1.31588 32.3085 1.44513 32.1193 1.67862L28.6627 5.91472H27.8286V2.38741C27.8286 2.08513 27.7268 1.81829 27.5315 1.62025C27.3362 1.4222 27.0778 1.31588 26.7828 1.31588C26.4878 1.31588 26.2417 1.42011 26.0443 1.61608C25.8429 1.81621 25.7371 2.08305 25.7371 2.3895V11.5726C25.7371 11.8665 25.8429 12.1313 26.0403 12.3335C26.2376 12.5378 26.496 12.6441 26.7828 12.6441C27.0697 12.6441 27.3423 12.5357 27.5376 12.3293C27.7289 12.125 27.8306 11.8644 27.8306 11.5726V7.89727H28.7278L32.4184 12.3022C32.6076 12.5232 32.8721 12.6441 33.1833 12.6525C33.1935 12.6525 33.2016 12.6525 33.2118 12.6525" fill="white"/>
<path d="M57.1088 23.6889C57.3001 23.4866 57.4018 23.224 57.4018 22.9321V13.749C57.4018 13.4468 57.3001 13.1799 57.1048 12.9798C56.9115 12.7817 56.6511 12.6754 56.3561 12.6754C56.0387 12.6754 55.762 12.8088 55.5464 13.0715L49.8295 20.393V13.749C49.8295 13.4468 49.7379 13.1903 49.5548 12.9902C49.3676 12.7859 49.1113 12.6775 48.8102 12.6775C48.5254 12.6775 48.2751 12.7755 48.0676 12.9694C47.8519 13.1695 47.738 13.4405 47.738 13.749V22.9321C47.738 23.2323 47.8499 23.4971 48.0635 23.7014C48.269 23.8994 48.5274 24.0037 48.8122 24.0037C48.9607 24.0037 49.1092 23.9703 49.2517 23.9036C49.3961 23.8369 49.5161 23.7452 49.6219 23.6222L55.3103 16.3049V22.9321C55.3103 23.2261 55.4161 23.4908 55.6135 23.693C55.8129 23.8973 56.0692 24.0037 56.3561 24.0037C56.6429 24.0037 56.9156 23.8952 57.1109 23.6868" fill="white"/>
<path d="M68.8905 12.6775C68.6057 12.6775 68.3494 12.7817 68.152 12.9777C67.9506 13.1778 67.8448 13.4447 67.8448 13.749V17.2742H62.4188V13.749C62.4188 13.4447 62.3151 13.1799 62.1218 12.9819C61.9285 12.7838 61.6681 12.6775 61.3731 12.6775C61.0781 12.6775 60.834 12.7817 60.6346 12.9777C60.4332 13.1778 60.3274 13.4447 60.3274 13.749V22.9321C60.3274 23.2261 60.4332 23.4887 60.6305 23.693C60.8279 23.8973 61.0863 24.0036 61.3731 24.0036C61.66 24.0036 61.9326 23.8952 62.1279 23.6889C62.3192 23.4866 62.4209 23.224 62.4209 22.9321V19.2568H67.8468V22.9321C67.8468 23.2261 67.9526 23.4887 68.15 23.693C68.3494 23.8973 68.6057 24.0036 68.8926 24.0036C69.1794 24.0036 69.4541 23.8932 69.6433 23.6847C69.8305 23.4804 69.9241 23.2261 69.9241 22.9321V13.749C69.9241 13.4426 69.8284 13.1862 69.6392 12.986C69.448 12.7838 69.1896 12.6775 68.8926 12.6775" fill="white"/>
<path d="M81.366 22.9613C81.3456 22.7237 81.248 22.5006 81.075 22.2984L77.5839 18.1436L80.7292 14.3974C80.9082 14.1868 81.0018 13.9575 81.0099 13.7115C81.016 13.4593 80.9265 13.2216 80.7414 13.0048C80.5481 12.7797 80.2816 12.665 79.9805 12.6692C79.6794 12.6754 79.419 12.8047 79.2318 13.0382L75.7752 17.2743H74.939V13.749C74.939 13.4447 74.8353 13.1799 74.642 12.9819C74.4487 12.7838 74.1883 12.6775 73.8933 12.6775C73.5983 12.6775 73.3542 12.7818 73.1548 12.9777C72.9534 13.1778 72.8476 13.4447 72.8476 13.749V22.9321C72.8476 23.2261 72.9534 23.4887 73.1507 23.693C73.3501 23.8973 73.6065 24.0037 73.8933 24.0037C74.1802 24.0037 74.4528 23.8953 74.6481 23.6889C74.8394 23.4867 74.9411 23.224 74.9411 22.9321V19.2568H75.8383L79.5288 23.6618C79.718 23.8828 79.9825 24.0037 80.2938 24.0099C80.304 24.0099 80.3121 24.0099 80.3223 24.0099C80.6946 24.0099 80.9265 23.8536 81.0567 23.7181C81.3395 23.4283 81.3802 23.1448 81.366 22.9592" fill="white"/>
<path d="M44.849 24.2121C44.611 24.2121 44.3832 24.1433 44.1736 24.0078C43.9518 23.866 43.7911 23.6659 43.6935 23.4157L41.1097 16.8906L38.4608 23.4241C38.3468 23.6888 38.178 23.8889 37.9583 24.0245C37.7528 24.1495 37.533 24.2142 37.3072 24.2142C36.8678 24.2142 36.4955 24.0036 36.2615 23.6179C36.0316 23.2406 36.0051 22.8028 36.1842 22.388L39.8992 13.2987C39.9582 13.159 40.0294 13.036 40.1148 12.9297C39.6042 12.8609 39.122 12.7337 38.6744 12.5482C37.9603 12.2522 37.3377 11.8311 36.823 11.2911C36.3083 10.7554 35.9055 10.1112 35.6227 9.37738C35.3419 8.64774 35.1995 7.84096 35.1995 6.97581C35.1995 6.11066 35.3419 5.30388 35.6227 4.58049C35.9055 3.85293 36.3083 3.21085 36.823 2.673C37.3377 2.13514 37.9603 1.71195 38.6744 1.41592C39.3824 1.12198 40.1697 0.973969 41.0161 0.973969C41.8624 0.973969 42.6477 1.12198 43.3517 1.41592C44.0597 1.71195 44.6822 2.13306 45.201 2.66883C45.7198 3.20668 46.1267 3.84876 46.4095 4.57632C46.6903 5.3018 46.8327 6.10858 46.8327 6.97164C46.8327 7.8347 46.6903 8.64357 46.4095 9.37321C46.1267 10.107 45.7198 10.7533 45.201 11.289C44.6822 11.8248 44.0597 12.248 43.3517 12.5419C42.9366 12.715 42.489 12.838 42.015 12.9089C42.1086 13.0235 42.1839 13.1611 42.2388 13.3154L45.9639 22.4213C46.1287 22.8508 46.1043 23.2656 45.8948 23.6242C45.675 24.0015 45.3027 24.2079 44.8511 24.2079L44.849 24.2121ZM41.1117 15.7941L44.0698 23.2615C44.1349 23.4303 44.2428 23.5617 44.3893 23.6575C44.5337 23.7493 44.6883 23.7972 44.849 23.7972C45.1624 23.7972 45.3963 23.668 45.5448 23.4157C45.6893 23.1697 45.7035 22.8883 45.5855 22.5839L41.8604 13.4738C41.7668 13.2153 41.6142 13.0444 41.4067 12.9547L41.0588 12.8067L40.7231 12.9589C40.5258 13.0485 40.3752 13.2174 40.2735 13.4592L36.5585 22.5527C36.4283 22.8508 36.4466 23.1322 36.6074 23.397C36.7701 23.6617 37.0041 23.7972 37.3072 23.7972C37.4578 23.7972 37.6083 23.7534 37.7507 23.668C37.8993 23.5783 38.0091 23.4449 38.0885 23.2635L41.1178 15.7962L41.1117 15.7941ZM41.014 1.38882C40.2206 1.38882 39.4841 1.52641 38.8249 1.79951C38.1637 2.0726 37.588 2.46453 37.1119 2.96068C36.6358 3.45684 36.2615 4.05306 35.999 4.72851C35.7366 5.40395 35.6044 6.15861 35.6044 6.97164C35.6044 7.78467 35.7366 8.54142 35.999 9.22103C36.2615 9.90272 36.6358 10.4989 37.1119 10.9972C37.588 11.4954 38.1637 11.8853 38.8249 12.1584C39.3783 12.3877 39.9927 12.5232 40.6499 12.5586L41.0568 12.5816L41.4698 12.5524C42.0923 12.5086 42.6742 12.3752 43.197 12.1584C43.8542 11.8853 44.4299 11.4933 44.9101 10.9972C45.3902 10.501 45.7666 9.90272 46.029 9.22103C46.2915 8.54142 46.4237 7.78467 46.4237 6.97164C46.4237 6.15861 46.2915 5.40603 46.029 4.72851C45.7666 4.05098 45.3902 3.45684 44.9101 2.9586C44.4299 2.46244 43.8542 2.0726 43.197 1.79742C42.5419 1.52433 41.8075 1.38674 41.014 1.38674V1.38882ZM41.014 10.9784C40.4647 10.9784 39.9541 10.8763 39.4923 10.672C39.0345 10.4698 38.6317 10.1862 38.3 9.82767C37.9664 9.46911 37.7039 9.04174 37.5188 8.55601C37.3337 8.07236 37.238 7.53868 37.238 6.97372C37.238 6.40877 37.3316 5.87509 37.5188 5.39144C37.706 4.90571 37.9684 4.47834 38.3 4.11978C38.6337 3.76121 39.0345 3.47977 39.4923 3.28173C39.952 3.08368 40.4647 2.98153 41.014 2.98153C41.5634 2.98153 42.076 3.0816 42.5358 3.28173C42.9956 3.48186 43.4005 3.76329 43.7362 4.11978C44.0739 4.47834 44.3364 4.90571 44.5174 5.38936C44.6985 5.87509 44.7921 6.40877 44.7921 6.97372C44.7921 7.53868 44.7005 8.07236 44.5174 8.55809C44.3364 9.04174 44.0739 9.46911 43.7362 9.82767C43.3985 10.1862 42.9956 10.4718 42.5358 10.6741C42.076 10.8763 41.5654 10.9805 41.0161 10.9805L41.014 10.9784ZM38.595 9.53998C38.89 9.85686 39.2481 10.1091 39.655 10.2905C40.0639 10.4718 40.5217 10.5636 41.014 10.5636C41.5064 10.5636 41.9641 10.4718 42.3731 10.2926C42.782 10.1112 43.1421 9.85894 43.4412 9.53998C43.7403 9.22103 43.9742 8.84161 44.1349 8.41008C44.2997 7.97229 44.3832 7.48864 44.3832 6.97581C44.3832 6.46297 44.2997 5.97932 44.1349 5.54154C43.9742 5.11001 43.7403 4.73059 43.4412 4.41163C43.1441 4.09476 42.7861 3.8446 42.3771 3.6674C41.9682 3.4902 41.5084 3.40055 41.014 3.40055C40.5197 3.40055 40.0599 3.4902 39.6509 3.6674C39.244 3.84251 38.89 4.09267 38.595 4.40955C38.298 4.72851 38.064 5.11001 37.8972 5.54571C37.7304 5.98141 37.6449 6.46297 37.6449 6.97581C37.6449 7.48864 37.7304 7.97021 37.8972 8.40591C38.064 8.84161 38.298 9.22311 38.595 9.54207V9.53998Z" fill="white"/>
<path d="M21.5746 31.8629C21.4871 31.9025 21.3996 31.9338 21.308 31.9567C21.1941 31.9838 21.0802 31.9984 20.9642 31.9984C20.775 31.9984 20.6285 31.9505 20.5268 31.8567C20.423 31.7629 20.3722 31.6253 20.3722 31.4439V30.6892H19.9185V31.5023C19.9185 31.792 20.0039 32.0172 20.1769 32.1735C20.3498 32.3299 20.5919 32.4091 20.9072 32.4091C21.0232 32.4091 21.1412 32.3945 21.2653 32.3674C21.365 32.3445 21.4688 32.3111 21.5746 32.2694V33.2305H22.0323V30.6913H21.5746V31.865V31.8629Z" fill="white"/>
<path d="M24.2336 30.6892L23.1187 33.2284H23.5887L23.8349 32.6405H25.0759L25.3221 33.2284H25.8083L24.6894 30.6892H24.2357H24.2336ZM23.9915 32.2715L24.4574 31.1604L24.9213 32.2715H23.9915Z" fill="white"/>
<path d="M27.3871 31.3168C27.4664 31.2376 27.56 31.1751 27.6678 31.1313C27.7757 31.0875 27.8937 31.0667 28.0239 31.0667C28.1541 31.0667 28.2701 31.0917 28.3819 31.1417C28.4938 31.1918 28.5935 31.2668 28.6871 31.3648L28.9842 31.0771C28.8682 30.9374 28.7278 30.8311 28.5589 30.7602C28.3921 30.6893 28.207 30.6539 28.0035 30.6539C27.8123 30.6539 27.6373 30.6852 27.4766 30.7498C27.3159 30.8144 27.1755 30.9061 27.0555 31.0229C26.9354 31.1417 26.8418 31.2793 26.7747 31.4377C26.7096 31.5941 26.675 31.7692 26.675 31.961C26.675 32.1528 26.7076 32.3258 26.7747 32.4843C26.8418 32.6427 26.9334 32.7803 27.0534 32.8991C27.1735 33.0179 27.3118 33.1097 27.4725 33.1722C27.6333 33.2368 27.8082 33.2681 27.9995 33.2681C28.2049 33.2681 28.3921 33.2306 28.5589 33.1597C28.7278 33.0867 28.8682 32.9804 28.9842 32.8407L28.6871 32.5531C28.5956 32.6552 28.4938 32.7303 28.3819 32.7803C28.2701 32.8303 28.1521 32.8553 28.0239 32.8553C27.8957 32.8553 27.7757 32.8345 27.6678 32.7907C27.56 32.7469 27.4664 32.6865 27.3871 32.6052C27.3077 32.526 27.2467 32.4321 27.1999 32.3217C27.1552 32.2133 27.1328 32.0923 27.1328 31.9631C27.1328 31.8338 27.1552 31.7129 27.1999 31.6045C27.2447 31.4961 27.3077 31.4023 27.3871 31.321" fill="white"/>
<path d="M29.7939 31.0874H30.6117V33.2284H31.0654V31.0874H31.8914V30.6892H29.7939V31.0874Z" fill="white"/>
<path d="M34.7377 31.7378H33.4559V30.6892H32.9962V33.2284H33.4559V32.1402H34.7377V33.2284H35.1954V30.6892H34.7377V31.7378Z" fill="white"/>
<path d="M37.4008 30.6892L36.2859 33.2284H36.7559L37.0021 32.6405H38.2431L38.4893 33.2284H38.9755L37.8565 30.6892H37.4029H37.4008ZM37.1587 32.2715L37.6246 31.1604L38.0885 32.2715H37.1587Z" fill="white"/>
<path d="M40.2511 30.7997C40.0945 30.8727 39.9744 30.979 39.889 31.1166C39.8035 31.2542 39.7608 31.4231 39.7608 31.6211C39.7608 31.8066 39.8015 31.9692 39.8808 32.1047C39.9602 32.2403 40.0761 32.3445 40.2247 32.4154C40.247 32.4258 40.2735 32.4362 40.2979 32.4446L39.7669 33.2305H40.2531L40.715 32.5217C40.7313 32.5217 40.7455 32.5217 40.7618 32.5217H41.3741V33.2284H41.8278V30.6892H40.7964C40.5868 30.6892 40.4037 30.7268 40.247 30.7997M41.3782 31.0874V32.136H40.7984C40.6112 32.136 40.4708 32.0902 40.3752 32.0005C40.2796 31.9088 40.2328 31.7816 40.2328 31.6148C40.2328 31.4481 40.2837 31.3105 40.3834 31.2208C40.483 31.1333 40.6275 31.0874 40.8167 31.0874H41.3803H41.3782Z" fill="white"/>
<path d="M47.6526 32.8302H46.7472V30.6892H46.2935V32.8302H45.3801V30.6892H44.9223V33.2284H48.1103V30.6892H47.6526V32.8302Z" fill="white"/>
<path d="M51.6442 30.6892H51.1559L50.4398 31.7545H49.9658V30.6892H49.5161V33.2284H49.9658V32.159H50.4296L51.1559 33.2284H51.6768L50.7938 31.9171L51.6442 30.6892Z" fill="white"/>
<path d="M54.7977 31.0207C54.6776 30.9039 54.5373 30.8122 54.3745 30.7476C54.2117 30.6829 54.0347 30.6517 53.8435 30.6517C53.6523 30.6517 53.4712 30.685 53.3084 30.7497C53.1457 30.8143 53.0033 30.906 52.8832 31.0248C52.7632 31.1416 52.6696 31.2792 52.6025 31.4376C52.5353 31.596 52.5028 31.7691 52.5028 31.9588C52.5028 32.1485 52.5353 32.3173 52.6025 32.4758C52.6676 32.6342 52.7612 32.7739 52.8832 32.8906C53.0033 33.0095 53.1457 33.1012 53.3105 33.1658C53.4753 33.2304 53.6523 33.2638 53.8435 33.2638C54.0347 33.2638 54.2117 33.2325 54.3745 33.1679C54.5373 33.1033 54.6776 33.0116 54.7977 32.8948C54.9177 32.776 55.0093 32.6384 55.0764 32.48C55.1415 32.3215 55.1761 32.1485 55.1761 31.9588C55.1761 31.7691 55.1435 31.596 55.0764 31.4355C55.0093 31.275 54.9177 31.1374 54.7977 31.0207ZM54.6451 32.3173C54.6003 32.4257 54.5413 32.5216 54.462 32.6009C54.3847 32.6801 54.2931 32.7426 54.1873 32.7864C54.0815 32.8302 53.9676 32.851 53.8415 32.851C53.7153 32.851 53.5994 32.8302 53.4936 32.7864C53.3857 32.7426 53.2942 32.6801 53.2148 32.5988C53.1375 32.5175 53.0765 32.4237 53.0297 32.3132C52.9849 32.2048 52.9626 32.0859 52.9626 31.9567C52.9626 31.8274 52.9849 31.7065 53.0297 31.6002C53.0745 31.4918 53.1355 31.398 53.2148 31.3167C53.2922 31.2354 53.3857 31.1728 53.4936 31.1291C53.6014 31.0853 53.7174 31.0644 53.8415 31.0644C53.9656 31.0644 54.0815 31.0853 54.1873 31.1291C54.2931 31.1728 54.3847 31.2333 54.464 31.3146C54.5434 31.3938 54.6044 31.4876 54.6471 31.5981C54.6898 31.7065 54.7102 31.8274 54.7102 31.9567C54.7102 32.0859 54.6878 32.2069 54.6451 32.3153" fill="white"/>
<path d="M56.5819 31.7378C56.5717 31.9776 56.5555 32.1777 56.529 32.3403C56.5026 32.5029 56.4619 32.6238 56.4029 32.7072C56.3459 32.7885 56.2645 32.8302 56.1628 32.8302C56.1262 32.8302 56.0896 32.8261 56.057 32.8156L56.0245 33.2284C56.0713 33.2409 56.116 33.2492 56.1567 33.2534C56.1974 33.2576 56.2381 33.2618 56.2788 33.2618C56.411 33.2618 56.5209 33.2284 56.6084 33.1638C56.6959 33.0991 56.765 32.9991 56.8179 32.8677C56.8708 32.7364 56.9095 32.5738 56.9359 32.3841C56.9624 32.1923 56.9786 31.9734 56.9888 31.7232L57.0092 31.0874H57.9837V33.2284H58.4414V30.6892H56.6165L56.5819 31.7378Z" fill="white"/>
<path d="M60.6468 30.6892L59.5319 33.2284H60.0019L60.2481 32.6405H61.4871L61.7332 33.2284H62.2195L61.1005 30.6892H60.6468ZM60.4027 32.2715L60.8686 31.1604L61.3324 32.2715H60.4027Z" fill="white"/>
</svg>
